Results
version=1
nRows=9
nColumns=24
inDegrees=yes
endheader
time	pelvis_tilt	pelvis_list	pelvis_rotation	pelvis_tx	pelvis_ty	pelvis_tz	hip_flexion_r	hip_adduction_r	hip_rotation_r	knee_angle_r	ankle_angle_r	subtalar_angle_r	mtp_angle_r	hip_flexion_l	hip_adduction_l	hip_rotation_l	knee_angle_l	ankle_angle_l	subtalar_angle_l	mtp_angle_l	lumbar_extension	lumbar_bending	lumbar_rotation
      0.82916667	     -0.58373094	     -4.73626481	      7.26557132	     -0.55492141	      1.02434658	      0.32599315	     13.69190884	      9.87812406	     -4.38733270	    -16.92996225	      3.48706068	     -8.18281702	     10.70337695	     17.10226182	     -6.49339016	      0.44974895	    -68.73463254	     -7.96387561	     -4.07186181	      6.02686734	      0.40217113	      1.83581232	     -1.28442058
      0.83333333	     -0.59006592	     -4.69330150	      7.23497055	     -0.55017003	      1.02493834	      0.32620178	     13.28566231	      9.88641396	     -4.37888251	    -16.71164051	      3.64179898	     -8.05118600	     10.71687293	     17.68405392	     -6.42911031	      0.45607794	    -68.62801642	     -7.00943400	     -4.30472578	      5.93139052	      0.33053115	      1.78684496	     -1.16026457
      0.83750000	     -0.61943901	     -4.63793293	      7.18798822	     -0.54543803	      1.02550812	      0.32640592	     12.90888157	      9.87888128	     -4.35569353	    -16.50720599	      3.78191667	     -7.93075045	     10.72742917	     18.27039618	     -6.34070202	      0.45174213	    -68.45221102	     -6.12579376	     -4.60138333	      5.85800900	      0.25758304	      1.73145039	     -1.04166163
      0.84166667	     -0.62816652	     -4.57203760	      7.14047282	     -0.54066329	      1.02611479	      0.32661098	     12.49021635	      9.86444863	     -4.32799132	    -16.26733274	      3.90534565	     -7.83274176	     10.73425468	     18.81176012	     -6.24496757	      0.43617649	    -68.20530923	     -5.32436227	     -4.93032382	      5.82297306	      0.22085104	      1.65248265	     -0.95442797
      0.84583333	     -0.63828251	     -4.50756447	      7.06910339	     -0.53590129	      1.02670241	      0.32683866	     12.08111795	      9.85273820	     -4.28950223	    -16.04729058	      4.04664871	     -7.70254551	     10.74285801	     19.33505451	     -6.15608392	      0.40025869	    -67.89973316	     -4.52523144	     -5.20368453	      5.77347162	      0.15048004	      1.58670254	     -0.81843673
      0.85000000	     -0.61552885	     -4.43530724	      6.98111722	     -0.53115888	      1.02732952	      0.32708694	     11.63380922	      9.83820283	     -4.23504226	    -15.82686265	      4.25412676	     -7.44550740	     10.76272324	     19.80171510	     -6.06482476	      0.35689241	    -67.53294922	     -3.75226973	     -5.35857227	      5.58430780	      0.03436896	      1.50341836	     -0.47345763
      0.85416667	     -0.60873914	     -4.34691573	      6.87765174	     -0.52640912	      1.02793985	      0.32733451	     11.20070416	      9.80615276	     -4.15972005	    -15.60611491	      4.41205458	     -7.27596404	     10.78343751	     20.26019034	     -5.95093991	      0.29566998	    -67.09467190	     -3.08395629	     -5.65486621	      5.32718319	     -0.06029826	      1.40902515	     -0.22828830
      0.85833333	     -0.63009359	     -4.27441833	      6.76749157	     -0.52169039	      1.02846577	      0.32757986	     10.80417709	      9.78784710	     -4.06452859	    -15.38879755	      4.51723287	     -7.16829821	     10.79512656	     20.74258554	     -5.84648121	      0.24530520	    -66.61374162	     -2.44716012	     -5.94704804	      5.18991830	     -0.14421574	      1.35125961	     -0.09943114
      0.86250000	     -0.61667049	     -4.19694853	      6.65279471	     -0.51691879	      1.02905171	      0.32781380	     10.35789975	      9.76196444	     -4.01773554	    -15.14958715	      4.62844910	     -6.97962358	     10.82316759	     21.15832680	     -5.74300553	      0.18516875	    -66.06039937	     -1.85880530	     -6.21795509	      4.74443780	     -0.20681035	      1.28282636	      0.24946030
